<svg width="160" height="48" viewBox="0 0 160 48" fill="none" xmlns="http://www.w3.org/2000/svg"><g clip-path="url(#a)"><path d="M18.966 37.176q-3.08 0-5.72-.924-2.595-.968-4.048-2.42-.66-.704-.572-1.584a2.2 2.2 0 0 1 .88-1.496q.88-.704 1.716-.572a2.3 2.3 0 0 1 1.496.748q.748.835 2.376 1.584 1.672.704 3.696.704 2.552 0 3.872-.836 1.365-.836 1.408-2.156.044-1.32-1.276-2.288-1.275-.968-4.708-1.584-4.445-.88-6.468-2.64-1.98-1.76-1.98-4.312 0-2.244 1.32-3.696 1.32-1.495 3.388-2.2a12.6 12.6 0 0 1 4.312-.748q2.904 0 5.148.924t3.564 2.552q.615.704.572 1.496-.045.748-.748 1.276-.705.484-1.672.308-.968-.175-1.628-.792-1.1-1.056-2.376-1.452t-2.948-.396q-1.935 0-3.3.66-1.32.66-1.32 1.936 0 .792.396 1.452.44.616 1.672 1.144 1.232.484 3.608.968 3.3.66 5.192 1.672 1.936 1.012 2.772 2.376.836 1.32.836 3.08 0 2.025-1.1 3.652-1.056 1.627-3.168 2.596-2.069.968-5.192.968m17.379 10.12q-.969 0-1.628-.66-.616-.616-.616-1.584V24.988q.044-3.476 1.628-6.248a11.6 11.6 0 0 1 4.312-4.356q2.727-1.628 6.16-1.628 3.475 0 6.204 1.628a11.6 11.6 0 0 1 4.312 4.356q1.628 2.771 1.628 6.248 0 3.476-1.496 6.248-1.452 2.728-4.004 4.356-2.553 1.584-5.764 1.584-2.597 0-4.796-1.056a11.7 11.7 0 0 1-3.696-2.948v11.88q0 .968-.616 1.584-.617.66-1.628.66m9.856-14.08q2.244 0 4.004-1.056a7.9 7.9 0 0 0 2.772-2.948q1.056-1.892 1.056-4.224 0-2.376-1.056-4.224-1.012-1.892-2.772-2.948-1.76-1.1-4.004-1.1-2.2 0-4.004 1.1-1.761 1.056-2.772 2.948-1.012 1.848-1.012 4.224 0 2.332 1.012 4.224a7.9 7.9 0 0 0 2.772 2.948Q44 33.216 46.2 33.216M70.758 37q-1.935 0-3.432-1.056-1.495-1.056-2.332-2.86-.836-1.848-.836-4.224V4.836q0-.967.616-1.584.616-.615 1.584-.616.968 0 1.584.616.615.616.616 1.584V28.86q0 1.628.616 2.684t1.584 1.056h1.1q.88 0 1.408.616.572.616.572 1.584t-.836 1.584-2.156.616zm10.156 0q-.969 0-1.629-.616-.615-.66-.615-1.628v-19.58q0-1.012.615-1.628.66-.616 1.629-.616 1.012 0 1.627.616.617.615.617 1.628v19.58q0 .968-.617 1.628-.616.615-1.627.616m0-27.984q-1.19 0-2.068-.836-.837-.88-.837-2.068t.837-2.024q.879-.88 2.067-.88t2.025.88q.88.836.88 2.024t-.88 2.068a2.76 2.76 0 0 1-2.025.836M100.263 37q-2.2 0-3.96-1.1-1.76-1.145-2.772-3.08t-1.012-4.356V7.476q0-.967.616-1.584.615-.615 1.584-.616.967 0 1.584.616.615.616.616 1.584v20.988q0 1.76.968 2.948t2.376 1.188h1.496q.792 0 1.32.616.572.616.572 1.584t-.748 1.584q-.703.615-1.848.616zm-9.768-19.404q-.924 0-1.496-.528a1.72 1.72 0 0 1-.572-1.32q0-.88.572-1.408t1.496-.528h10.164q.924 0 1.496.528t.572 1.408q0 .792-.572 1.32t-1.496.528zm19.948 20.108q-1.232 0-2.156-.88-.88-.924-.88-2.156 0-1.276.88-2.156.924-.924 2.156-.924 1.276 0 2.156.924.88.88.88 2.156 0 1.232-.88 2.156-.88.88-2.156.88M128.407 37q-2.199 0-3.96-1.1-1.76-1.145-2.772-3.08t-1.012-4.356V7.476q0-.967.616-1.584.617-.615 1.584-.616.969 0 1.584.616t.616 1.584v20.988q0 1.76.968 2.948.969 1.188 2.376 1.188h1.496q.792 0 1.32.616.572.616.572 1.584t-.748 1.584q-.703.615-1.848.616zm-9.768-19.404q-.924 0-1.496-.528a1.72 1.72 0 0 1-.572-1.32q0-.88.572-1.408t1.496-.528h10.164q.924 0 1.496.528.573.528.572 1.408 0 .792-.572 1.32t-1.496.528zm20.829 4.356q0-2.64 1.276-4.708a9.6 9.6 0 0 1 3.52-3.344q2.2-1.232 4.84-1.232t3.916.88q1.32.836 1.012 2.024-.132.615-.528.968a1.7 1.7 0 0 1-.836.396 2.6 2.6 0 0 1-1.056-.044q-2.816-.571-5.06-.088-2.244.484-3.564 1.804-1.276 1.32-1.276 3.344zM139.512 37q-1.056 0-1.628-.528-.573-.572-.572-1.672V15.132q0-1.056.572-1.628t1.628-.572q1.1 0 1.628.572.572.528.572 1.628V34.8q0 1.056-.572 1.628-.528.572-1.628.572" fill="#111418"/><path d="M0 20h105l4 4H4z" fill="#dd348b"/></g><defs><clipPath id="a"><path fill="#fff" d="M0 0h160v45H0z"/></clipPath></defs></svg>